HIERARCHY
ROOT pelvis
{
  OFFSET 0 100 0
  CHANNELS 6 Xposition Yposition Zposition Zrotation Xrotation Yrotation
  JOINT pelvis_right_femur
  {
    OFFSET -10.78128 -3.44521 -0.5502486
    CHANNELS 3 Zrotation Xrotation Yrotation
    JOINT right_femur_tibia
    {
      OFFSET -0.8047443 -44.0398 -0.1307829
      CHANNELS 3 Zrotation Xrotation Yrotation
      JOINT right_tibia_foot
      {
        OFFSET 3.006224 -47.83518 -5
        CHANNELS 3 Zrotation Xrotation Yrotation
        End Site
        {
          OFFSET 0 -5 15
        }
      }
    }
  }
  JOINT pelvis_left_femur
  {
    OFFSET 10.78128 -3.44521 -0.5502486
    CHANNELS 3 Zrotation Xrotation Yrotation
    JOINT left_femur_tibia
    {
      OFFSET 0.8047443 -44.0398 -0.1307829
      CHANNELS 3 Zrotation Xrotation Yrotation
      JOINT left_tibia_foot
      {
        OFFSET -4.370144 -48.10324 -4.275266
        CHANNELS 3 Zrotation Xrotation Yrotation
        End Site
        {
          OFFSET 0 -5 15
        }
      }
    }
  }
  JOINT pelvis_spine1
  {
    OFFSET 0 6.468898 -3.129235
    CHANNELS 3 Zrotation Xrotation Yrotation
    JOINT spine1
    {
      OFFSET 0 23.15396 4.99043
      CHANNELS 3 Zrotation Xrotation Yrotation
      JOINT spine2
      {
        OFFSET 0 20.79997 -5.064912
        CHANNELS 3 Zrotation Xrotation Yrotation
        JOINT neck
        {
          OFFSET 0 14.38658 9.616178
          CHANNELS 3 Zrotation Xrotation Yrotation
          End Site
          {
            OFFSET 0 20 0
          }
        }
      }
      JOINT right_manubrium
      {
        OFFSET -5.722621 16.35077 3.967754
        CHANNELS 3 Zrotation Xrotation Yrotation
        JOINT right_clavicle
        {
          OFFSET -13.16364 1.694482 -4.693211
          CHANNELS 3 Zrotation Xrotation Yrotation
          JOINT right_humerus
          {
            OFFSET -28.5034 -0.3100689 -2.792744
            CHANNELS 3 Zrotation Xrotation Yrotation
            JOINT right_radius
            {
              OFFSET -25.15693 0.02248979 -1.271978
              CHANNELS 3 Zrotation Xrotation Yrotation
              End Site
              {
                OFFSET -15 0 0
              }
            }
          }
        }
      }
      JOINT left_manubrium
      {
        OFFSET 5.722621 16.35077 3.967754
        CHANNELS 3 Zrotation Xrotation Yrotation
        JOINT left_clavicle
        {
          OFFSET 13.16364 1.694482 -4.693211
          CHANNELS 3 Zrotation Xrotation Yrotation
          JOINT left_humerus
          {
            OFFSET 29.39168 -1.063119 -2.237045
            CHANNELS 3 Zrotation Xrotation Yrotation
            JOINT left_radius
            {
              OFFSET 24.59957 -0.9528479 0.9047498
              CHANNELS 3 Zrotation Xrotation Yrotation
              End Site
              {
                OFFSET 15 -0 -0
              }
            }
          }
        }
      }
    }
  }
}
MOTION
Frames: 11
Frame Time: 0.0416666666667
0 103.5113 0 0.8269756 -1.721093 0.8532897 1.080414 -21.81568 3.001722 -0 34.5606 -0 -4.039397 -5.009792 -3.494718 -6.242617 12.30196 -17.07973 0 -5.583421 0 3.328769 -21.52199 20.4386 -3.575634 -1.458223 2.892106 1.476423 8.706458 -7.179057 1.427839 22.17583 7.183034 2.970849 -21.67759 9.056354 3.945138 -18.19862 10.51501 86.91484 31.50374 -17.95003 -0 0 14.25255 -15.07966 10.02621 8.820781 6.314368 -20.02587 -3.530476 -88.99439 26.99499 16.3962 0 0 -19.36408 3.565748 14.19072 9.700567
0.6038375 102.5104 3.732336 0.8453793 -1.622427 1.686901 1.055542 -21.96581 2.943637 -0 34.44424 -0 -4.165001 -5.073679 -3.396447 -6.245136 12.35203 -17.21139 0 -6.518871 0 3.61196 -21.65605 20.59637 -3.601048 -1.513409 2.881647 1.493008 8.726121 -7.199432 1.406771 22.14849 7.196414 2.99069 -21.77039 9.057446 3.925499 -18.33187 10.52261 86.89768 31.50922 -17.91979 -0 0 14.36788 -15.00114 9.953791 8.831474 6.357585 -20.08782 -3.541315 -89.08361 26.92895 16.55571 0 0 -19.35037 3.732687 14.30793 9.511262
1.12592 101.4519 7.458937 0.6134222 -1.242676 2.377777 1.796894 -23.93015 2.878538 -0 29.89217 -0 -4.764641 -5.70065 -3.428151 -5.919634 13.35704 -16.91736 0 -3.883816 0 3.447872 -21.5624 19.99861 -3.290171 -1.579528 2.822061 1.773682 8.84561 -7.543872 1.361109 22.01999 7.112653 3.008181 -22.04164 8.926003 3.828383 -18.20053 10.60608 87.54579 31.54433 -19.13468 -0 0 13.65168 -14.3639 10.05964 8.323266 6.52097 -20.79394 -3.621447 -88.71254 26.72206 15.92414 0 0 -20.85238 4.283598 14.48386 8.911752
1.570711 100.2385 11.07807 0.3532589 -0.6799467 2.948486 2.500579 -26.165 2.771446 -0 25.12147 -0 -5.562014 -6.5323 -3.292191 -5.598624 14.41775 -16.90462 0 -3.087853 0 3.797285 -21.74702 19.71462 -3.034409 -1.74345 2.751706 2.092051 8.976672 -7.926094 1.275804 21.83565 7.059416 3.060458 -22.49947 8.806899 3.716025 -18.3195 10.70126 88.12516 31.63871 -20.2702 -0 0 13.19019 -13.54566 10.02586 7.827123 6.761494 -21.58488 -3.694655 -88.5391 26.45554 15.62731 0 0 -22.32361 5.093453 14.85551 8.028597
1.929332 98.90792 14.64873 0.1159164 -0.2851892 3.40634 3.168527 -28.04093 2.700095 -0 20.84782 -0 -6.231886 -7.144385 -3.246217 -5.302019 15.34161 -16.73978 0 -1.439497 0 3.892817 -21.75154 19.2997 -2.767472 -1.85371 2.693703 2.359465 9.110623 -8.254499 1.215919 21.6963 6.989172 3.091535 -22.81907 8.680749 3.598979 -18.32418 10.78631 88.71526 31.62893 -21.34278 -0 0 12.63819 -12.91895 10.05137 7.382977 6.94617 -22.29059 -3.781043 -88.2862 26.17499 15.2025 0 0 -23.66735 5.769523 15.10156 7.284383
2.203815 97.49956 18.21416 -0.09217637 -0.022979 3.758407 3.768533 -29.60899 2.616007 -0 17.09581 -0 -6.838341 -7.539165 -3.232089 -5.038754 16.14997 -16.4911 -0 0.5309167 -0 3.893536 -21.64489 18.84508 -2.507265 -1.939858 2.64104 2.578524 9.261445 -8.534272 1.171065 21.59082 6.909672 3.112284 -23.04233 8.548503 3.464026 -18.2873 10.86421 89.29957 31.50631 -22.31674 -0 0 12.06051 -12.46063 10.09755 7.007254 7.09545 -22.93849 -3.891267 -88.00282 25.83471 14.73832 0 0 -24.85083 6.403775 15.28449 6.572494
2.398496 96.07639 21.84841 -0.2501639 0.03781656 4.014225 4.282408 -30.71608 2.538168 -0 14.12687 -0 -7.285486 -7.632504 -3.301979 -4.825796 16.79592 -16.08432 -0 3.305614 -0 3.637309 -21.3462 18.27508 -2.25012 -1.965921 2.598441 2.727284 9.415887 -8.740538 1.15613 21.54216 6.816296 3.110896 -23.09989 8.414191 3.325019 -18.12811 10.92727 89.86742 31.26151 -23.16854 -0 0 11.40303 -12.24583 10.20768 6.711285 7.176794 -23.46779 -4.021412 -87.64313 25.47419 14.15008 0 0 -25.82869 6.874493 15.33518 6.027266
2.521368 94.71207 25.63692 -0.3491957 -0.1265016 4.184253 4.698267 -31.30548 2.454861 -0 12.02097 -0 -7.554349 -7.387866 -3.462186 -4.668916 17.25863 -15.4932 -0 7.005399 -0 3.094398 -20.82328 17.57704 -1.994618 -1.92414 2.567099 2.797127 9.576062 -8.864334 1.175 21.55709 6.706542 3.085133 -22.97069 8.276761 3.180568 -17.83059 10.97455 90.41505 30.8809 -23.88342 -0 0 10.65312 -12.30452 10.3935 6.50434 7.181477 -23.8657 -4.175943 -87.19863 25.08681 13.42147 0 0 -26.57945 7.15955 15.24162 5.670422
2.581924 93.49196 29.67654 -0.3835608 -0.5382939 4.278664 5.015985 -31.29852 2.373792 -0 10.82854 -0 -7.606416 -6.798628 -3.731384 -4.56801 17.49017 -14.68246 -0 11.8358 -0 2.205789 -20.02858 16.73169 -1.736098 -1.800054 2.553517 2.780621 9.736498 -8.894925 1.233328 21.64236 6.576694 3.030493 -22.62984 8.136436 3.035975 -17.36872 11.00505 90.93025 30.36739 -24.4456 -0 0 9.799822 -12.66221 10.67485 6.392032 7.096424 -24.1074 -4.350927 -86.66241 24.6874 12.53446 0 0 -27.08663 7.205825 14.9783 5.561242
2.590981 92.51086 34.06984 -0.3512879 -1.212813 4.306192 5.239991 -30.59205 2.303293 -0 10.55038 -0 -7.413231 -5.887426 -4.120829 -4.512823 17.40326 -13.62099 -0 17.94039 -0 0.9374348 -18.90844 15.74229 -1.469039 -1.583379 2.569752 2.671272 9.893946 -8.820181 1.334971 21.80079 6.421507 2.943502 -22.06006 7.991266 2.893178 -16.73583 11.01999 91.39132 29.72524 -24.82498 -0 0 8.856309 -13.34092 11.06682 6.386423 6.911148 -24.17054 -4.540543 -86.04522 24.28332 11.50321 0 0 -27.32497 6.97309 14.52471 5.74536
2.560926 91.86995 38.91711 -0.2543058 -2.152736 4.272367 5.380419 -29.03217 2.263084 -0 11.13643 -0 -6.945855 -4.733965 -4.635045 -4.476236 16.84031 -12.2864 -0 25.38248 -0 -0.7264741 -17.40366 14.64221 -1.188606 -1.265752 2.638336 2.463663 10.04147 -8.6237 1.482177 22.03012 6.234756 2.820832 -21.25336 7.838947 2.755549 -15.9479 11.02232 91.75242 28.97519 -24.96404 -0 0 7.877155 -14.35474 11.58086 6.507554 6.615735 -24.02383 -4.72968 -85.38439 23.89294 10.39016 0 0 -27.25095 6.415714 13.85938 6.277783
